<?xml version="1.0" encoding="UTF-8"?><svg width="97" height="20" id="Capa_2" xmlns="http://www.w3.org/2000/svg" viewBox="0 0 180.11 46.58"><defs><style>.cls-1{fill:none;stroke:#000;stroke-linecap:round;stroke-linejoin:round;stroke-width:.65px;}.cls-2{stroke-width:0px;}</style></defs><g id="Capa_2-2"><path class="cls-2" d="m83.3,2.48c3.02,0,5.68.57,7.98,1.71,2.3,1.14,4.21,2.72,5.75,4.75,1.53,2.03,2.68,4.36,3.45,6.99.77,2.63,1.15,5.39,1.15,8.29,0,3.97-.68,7.61-2.05,10.9-1.37,3.29-3.4,5.92-6.09,7.89-2.69,1.97-6.09,2.95-10.18,2.95h-15.53c-.71,0-1.29-.25-1.77-.75s-.71-1.1-.71-1.8V4.97c0-.7.24-1.29.71-1.77.48-.48,1.07-.71,1.77-.71h15.53Zm-.62,38.63c3.19,0,5.79-.77,7.79-2.3,2.01-1.53,3.48-3.58,4.41-6.15.93-2.57,1.4-5.38,1.4-8.45,0-2.24-.26-4.38-.78-6.43-.52-2.05-1.33-3.86-2.42-5.43s-2.5-2.82-4.22-3.73c-1.72-.91-3.78-1.37-6.18-1.37h-12.73l.5-.5v34.96l-.37-.62h12.61Z"/><path class="cls-2" d="m138.57,13.54c.7,0,1.29.24,1.77.71.48.48.71,1.07.71,1.77v27.39c0,.7-.24,1.3-.71,1.8-.48.5-1.07.75-1.77.75-.75,0-1.35-.25-1.8-.75-.46-.5-.68-1.1-.68-1.8v-5.9l1.18-.12c0,.91-.31,1.91-.93,2.98-.62,1.08-1.47,2.08-2.55,3.01-1.08.93-2.35,1.7-3.82,2.3s-3.05.9-4.75.9c-2.82,0-5.34-.73-7.58-2.21-2.24-1.47-4-3.47-5.31-5.99-1.3-2.53-1.96-5.4-1.96-8.63s.65-6.16,1.96-8.66c1.3-2.5,3.07-4.47,5.31-5.9,2.24-1.43,4.72-2.14,7.45-2.14,1.78,0,3.44.29,4.97.87,1.53.58,2.87,1.37,4.01,2.36,1.14.99,2.03,2.09,2.67,3.29.64,1.2.96,2.4.96,3.6l-1.62-.37v-6.77c0-.7.23-1.29.68-1.77.46-.48,1.06-.71,1.8-.71Zm-12.79,28.44c2.07,0,3.9-.54,5.5-1.61,1.59-1.08,2.83-2.54,3.73-4.38s1.34-3.92,1.34-6.24-.45-4.34-1.34-6.18c-.89-1.84-2.13-3.29-3.73-4.35-1.59-1.06-3.43-1.58-5.5-1.58s-3.84.52-5.43,1.55c-1.59,1.04-2.85,2.46-3.76,4.29-.91,1.82-1.37,3.91-1.37,6.27s.44,4.4,1.34,6.24c.89,1.84,2.13,3.3,3.73,4.38,1.59,1.08,3.43,1.61,5.5,1.61Z"/><path class="cls-2" d="m156.33,45.96c-.75,0-1.35-.25-1.8-.75-.46-.5-.68-1.1-.68-1.8V2.48c0-.7.23-1.29.68-1.77.46-.48,1.06-.71,1.8-.71.7,0,1.29.24,1.77.71.47.48.71,1.07.71,1.77v40.92c0,.7-.24,1.3-.71,1.8-.48.5-1.07.75-1.77.75Zm20.62-32.29c.66,0,1.23.26,1.71.78.48.52.71,1.05.71,1.58,0,.7-.33,1.33-.99,1.86l-20.12,17.58-.19-5.78,17.14-15.28c.5-.5,1.08-.75,1.74-.75Zm.68,32.23c-.7,0-1.33-.27-1.86-.81l-13.23-14.1,3.73-3.42,13.1,14.04c.5.54.75,1.16.75,1.86,0,.75-.29,1.34-.87,1.77-.58.43-1.12.65-1.62.65Z"/><polygon class="cls-1" points="43.35 7.68 21.95 14.59 .45 7.88 22.21 3 43.35 7.68"/><polyline class="cls-1" points="34.05 12.3 21.95 16.26 .45 9.6 .45 7.88"/><polyline class="cls-1" points="43.35 7.68 43.35 9.26 35.65 11.78"/><line class="cls-1" x1="21.95" y1="14.59" x2="21.95" y2="16.26"/><polyline class="cls-1" points="43.46 16.57 22.06 26.94 .36 16.57"/><line class="cls-1" x1="37.22" y1="14.44" x2="32.46" y2="12.82"/><polyline class="cls-1" points="34.05 22.75 43.46 18.15 43.46 16.57 38.86 15"/><line class="cls-1" x1="32.77" y1="23.37" x2="33.41" y2="23.06"/><polyline class="cls-1" points="4.61 15.15 .36 16.57 .36 18.28 22.06 28.61 32.13 23.69"/><line class="cls-1" x1="11.25" y1="12.95" x2="6.25" y2="14.61"/><line class="cls-1" x1="22.06" y1="26.94" x2="22.06" y2="28.61"/><polyline class="cls-1" points="12.41 13.31 12.41 19.98 14.05 19.98 14.05 13.84"/><polyline class="cls-1" points="4.61 10.88 4.61 17.34 6.25 17.34 6.25 11.4"/><polyline class="cls-1" points="20.88 16.08 20.88 24.05 22.51 24.05 22.51 16.08"/><polyline class="cls-1" points="31.56 13.17 31.61 19.78 29.97 19.78 29.97 13.67"/><polyline class="cls-1" points="37.22 11.38 37.22 17.34 38.85 17.34 38.88 10.73"/><polyline class="cls-1" points="27.51 34.78 21.83 38.37 .33 24.95"/><line class="cls-1" x1="43.43" y1="24.74" x2="28.87" y2="33.92"/><polyline class="cls-1" points="4.72 22.72 .33 24.95 .33 26.66 21.83 40.04 43.43 26.32 43.43 24.74 38.67 22.11"/><line class="cls-1" x1="21.83" y1="38.37" x2="21.83" y2="40.04"/><polyline class="cls-1" points="12.58 24.13 12.58 29.94 14.21 29.94 14.21 24.99"/><polyline class="cls-1" points="4.78 20.48 4.78 26.08 6.42 26.08 6.42 21.19"/><polyline class="cls-1" points="21.05 28.21 21.05 35.02 22.68 35.02 22.68 28.31"/><polyline class="cls-1" points="29.73 24.93 29.73 29.53 31.37 29.53 31.35 24.15"/><polyline class="cls-1" points="38.61 20.52 38.61 26.28 36.98 26.28 36.98 21.32"/><polyline class="cls-1" points="14.7 35.61 14.7 40.05 13.07 40.05 13.07 34.64"/><polyline class="cls-1" points="6.91 30.76 6.91 34.76 5.27 34.76 5.27 29.78"/><polyline class="cls-1" points="20.72 39.42 20.72 46 22.36 46 22.36 39.7"/><polyline class="cls-1" points="29.41 35.22 29.41 39.7 31.04 39.7 31.04 34.19"/><polyline class="cls-1" points="36.65 30.65 36.65 35.02 38.29 35.02 38.31 29.64"/><path class="cls-2" d="m53.38,3.04c0-.14.13-.25.29-.25.16,0,.28.11.28.25h0s-.29,42.2-.29,42.2c0,.14-.13.25-.29.25-.16,0-.28-.11-.28-.25h0"/><path class="cls-2" d="m51.38,43.55c0-.09.05-.17.14-.22.13-.07.31-.04.39.08l1.31,1.89,1.63-1.8c.1-.11.28-.13.4-.04.12.09.14.25.04.36l-1.89,2.08c-.06.06-.15.1-.24.09-.09,0-.18-.05-.23-.12l-1.53-2.2s-.04-.09-.04-.13Z"/><path class="cls-2" d="m51.83,4.89s.01-.09.04-.13l1.53-2.2c.05-.07.13-.12.23-.12.09,0,.18.03.24.09l1.89,2.08c.1.11.08.27-.04.36-.12.09-.3.07-.4-.04l-1.63-1.8-1.31,1.89c-.08.12-.26.16-.39.08-.09-.05-.14-.13-.14-.22Z"/></g></svg>