<?xml version="1.0" encoding="utf-8"?>
<!-- Generator: Adobe Illustrator 28.0.0, SVG Export Plug-In . SVG Version: 6.00 Build 0)  -->
<svg version="1.1" id="Capa_1" xmlns="http://www.w3.org/2000/svg" xmlns:xlink="http://www.w3.org/1999/xlink" x="0px" y="0px"
	 viewBox="0 0 180 46.7" style="enable-background:new 0 0 180 46.7;" xml:space="preserve">
<style type="text/css">
	.st0{fill:#FFFFFF;}
	.st1{fill:none;stroke:#FFFFFF;stroke-width:0.6515;stroke-linecap:round;stroke-linejoin:round;stroke-miterlimit:10;}
	.st2{fill:none;stroke:#000000;stroke-width:0.6515;stroke-linecap:round;stroke-linejoin:round;stroke-miterlimit:10;}
	.st3{fill:#FFFFFF;stroke:#000000;stroke-miterlimit:10;}
	.st4{stroke:#FFFFFF;stroke-miterlimit:10;}
</style>
<g>
	<g>
		<g>
			<path class="st0" d="M83.2,2.5c3,0,5.7,0.6,8,1.7s4.2,2.7,5.7,4.8c1.5,2,2.7,4.4,3.4,7c0.8,2.6,1.1,5.4,1.1,8.3
				c0,4-0.7,7.6-2,10.9c-1.4,3.3-3.4,5.9-6.1,7.9s-6.1,3-10.2,3H67.6c-0.7,0-1.3-0.2-1.8-0.7s-0.7-1.1-0.7-1.8V5
				c0-0.7,0.2-1.3,0.7-1.8s1.1-0.7,1.8-0.7H83.2z M82.6,41.1c3.2,0,5.8-0.8,7.8-2.3s3.5-3.6,4.4-6.1c0.9-2.6,1.4-5.4,1.4-8.4
				c0-2.2-0.3-4.4-0.8-6.4S94.1,14,93,12.5s-2.5-2.8-4.2-3.7S85,7.4,82.6,7.4H69.9l0.5-0.5v35L70,41.3h12.6L82.6,41.1L82.6,41.1z"/>
			<path class="st0" d="M138.5,13.6c0.7,0,1.3,0.2,1.8,0.7s0.7,1.1,0.7,1.8v27.4c0,0.7-0.2,1.3-0.7,1.8s-1.1,0.7-1.8,0.7
				s-1.3-0.2-1.8-0.7s-0.7-1.1-0.7-1.8v-5.9l1.2-0.1c0,0.9-0.3,1.9-0.9,3c-0.6,1.1-1.5,2.1-2.5,3c-1.1,0.9-2.3,1.7-3.8,2.3
				s-3.1,0.9-4.8,0.9c-2.8,0-5.3-0.7-7.6-2.2c-2.2-1.5-4-3.5-5.3-6s-2-5.4-2-8.6c0-3.3,0.7-6.2,2-8.7s3.1-4.5,5.3-5.9
				s4.7-2.1,7.5-2.1c1.8,0,3.4,0.3,5,0.9c1.5,0.6,2.9,1.4,4,2.4s2,2.1,2.7,3.3c0.6,1.2,1,2.4,1,3.6l-1.6-0.4v-7
				c0-0.7,0.2-1.3,0.7-1.8C137.2,13.8,137.8,13.6,138.5,13.6z M125.7,42c2.1,0,3.9-0.5,5.5-1.6s2.8-2.5,3.7-4.4s1.3-3.9,1.3-6.2
				s-0.4-4.3-1.3-6.2c-0.9-1.8-2.1-3.3-3.7-4.3c-1.6-1.1-3.4-1.6-5.5-1.6c-2,0-3.8,0.5-5.4,1.6c-1.6,1-2.8,2.5-3.8,4.3
				c-0.9,1.8-1.4,3.9-1.4,6.3c0,2.3,0.4,4.4,1.3,6.2c0.9,1.8,2.1,3.3,3.7,4.4C121.8,41.5,123.6,42,125.7,42z"/>
			<path class="st0" d="M156.3,46c-0.7,0-1.3-0.2-1.8-0.7s-0.7-1.1-0.7-1.8v-41c0-0.7,0.2-1.3,0.7-1.8s1.1-0.7,1.8-0.7
				s1.3,0.2,1.8,0.7s0.7,1.1,0.7,1.8v40.9c0,0.7-0.2,1.3-0.7,1.8S157,46,156.3,46z M176.9,13.7c0.7,0,1.2,0.3,1.7,0.8s0.7,1,0.7,1.6
				c0,0.7-0.3,1.3-1,1.9l-20.1,17.6l-0.2-5.8l17.1-15.3C175.6,13.9,176.2,13.7,176.9,13.7z M177.6,45.9c-0.7,0-1.3-0.3-1.9-0.8
				L162.5,31l3.7-3.4l13.1,14c0.5,0.5,0.7,1.2,0.7,1.9s-0.3,1.3-0.9,1.8C178.6,45.7,178.1,45.9,177.6,45.9z"/>
		</g>
	</g>
	<g>
		<g>
			<polygon class="st1" points="43.3,7.7 21.9,14.6 0.4,7.9 22.1,3 			"/>
			<polyline class="st1" points="34,12.3 21.9,16.3 0.4,9.6 0.4,7.9 			"/>
			<polyline class="st1" points="43.3,7.7 43.3,9.3 35.6,11.8 			"/>
			<line class="st1" x1="21.9" y1="14.6" x2="21.9" y2="16.3"/>
		</g>
		<g>
			<polyline class="st1" points="43.4,16.6 22,27 0.3,16.6 			"/>
			<line class="st1" x1="37.1" y1="14.5" x2="32.4" y2="12.8"/>
			<polyline class="st1" points="34,22.8 43.4,18.2 43.4,16.6 38.8,15 			"/>
			<line class="st1" x1="32.7" y1="23.4" x2="33.3" y2="23.1"/>
			<polyline class="st1" points="4.5,15.2 0.3,16.6 0.3,18.3 22,28.6 32.1,23.7 			"/>
			<line class="st1" x1="11.2" y1="13" x2="6.2" y2="14.6"/>
			<line class="st1" x1="22" y1="27" x2="22" y2="28.6"/>
		</g>
		<polyline class="st1" points="12.3,13.3 12.3,20 14,20 14,13.9 		"/>
		<polyline class="st1" points="4.5,10.9 4.5,17.4 6.2,17.4 6.2,11.4 		"/>
		<polyline class="st1" points="20.8,16.1 20.8,24.1 22.4,24.1 22.4,16.1 		"/>
		<polyline class="st1" points="31.5,13.2 31.5,19.8 29.9,19.8 29.9,13.7 		"/>
		<polyline class="st1" points="37.1,11.4 37.1,17.4 38.8,17.4 38.8,10.7 		"/>
		<g>
			<polyline class="st1" points="27.4,34.8 21.8,38.4 0.3,25 			"/>
			<line class="st1" x1="43.4" y1="24.8" x2="28.8" y2="33.9"/>
			<polyline class="st1" points="4.6,22.7 0.3,25 0.3,26.7 21.8,40.1 43.4,26.3 43.4,24.8 38.6,22.1 			"/>
			<line class="st1" x1="21.8" y1="38.4" x2="21.8" y2="40.1"/>
		</g>
		<polyline class="st1" points="12.5,24.1 12.5,30 14.1,30 14.1,25 		"/>
		<polyline class="st1" points="4.7,20.5 4.7,26.1 6.3,26.1 6.3,21.2 		"/>
		<polyline class="st1" points="21,28.2 21,35 22.6,35 22.6,28.3 		"/>
		<polyline class="st1" points="29.7,25 29.7,29.6 31.3,29.6 31.3,24.2 		"/>
		<polyline class="st1" points="38.5,20.5 38.5,26.3 36.9,26.3 36.9,21.3 		"/>
		<polyline class="st1" points="14.6,35.6 14.6,40.1 13,40.1 13,34.7 		"/>
		<polyline class="st1" points="6.8,30.8 6.8,34.8 5.2,34.8 5.2,29.8 		"/>
		<polyline class="st1" points="20.7,39.4 20.7,46 22.3,46 22.3,39.7 		"/>
		<polyline class="st1" points="29.3,35.2 29.3,39.7 31,39.7 31,34.2 		"/>
		<polyline class="st1" points="36.6,30.7 36.6,35 38.2,35 38.2,29.7 		"/>
	</g>
	<g>
		<g>
			<path class="st4" d="M53.3,3.1c0-0.1,0.1-0.3,0.3-0.3c0.2,0,0.3,0.1,0.3,0.3l0,0l-0.3,42.2c0,0.1-0.1,0.3-0.3,0.3
				c-0.2,0-0.3-0.1-0.3-0.3l0,0"/>
		</g>
		<g>
			<path class="st4" d="M51.3,43.6c0-0.1,0-0.2,0.1-0.2c0.1-0.1,0.3,0,0.4,0.1l1.3,1.9l1.6-1.8c0.1-0.1,0.3-0.1,0.4,0s0.1,0.2,0,0.4
				l-1.9,2.1c-0.1,0.1-0.1,0.1-0.2,0.1s-0.2-0.1-0.2-0.1l-1.5-2.2C51.3,43.7,51.3,43.6,51.3,43.6z"/>
		</g>
		<g>
			<path class="st4" d="M51.8,4.9V4.8l1.5-2.2c0-0.1,0.1-0.1,0.2-0.1s0.2,0,0.2,0.1l1.9,2.1c0.1,0.1,0.1,0.3,0,0.4s-0.3,0.1-0.4,0
				l-1.6-1.8L52.3,5c-0.1,0.1-0.3,0.2-0.4,0.1C51.8,5.1,51.8,5,51.8,4.9z"/>
		</g>
	</g>
</g>
</svg>
